<svg id="Capa_1" enable-background="new 0 0 512 512" height="512" viewBox="0 0 512 512" width="512" xmlns="http://www.w3.org/2000/svg"><g><path d="m369.243 0h-308.743v512h391v-429.184zm-1.243 41.32 40.406 40.68h-40.406zm-277.5 440.68v-452h247.5v82h83.5v370z"/><path d="m192 342h188v30h-188z"/><path d="m132 342h30v30h-30z"/><path d="m192 402h188v30h-188z"/><path d="m132 402h30v30h-30z"/><path d="m373 188h-15c-51.792-1.426-101.876-50.477-106.099-54h-112.901v143h234zm-30 59h-174v-83h71.326c24.134 21.69 71.069 49.749 102.674 52.896z"/></g></svg>